<?xml version="1.0" standalone="no"?>
<!DOCTYPE svg PUBLIC "-//W3C//DTD SVG 20010904//EN"
 "http://www.w3.org/TR/2001/REC-SVG-20010904/DTD/svg10.dtd">
<svg version="1.0" xmlns="http://www.w3.org/2000/svg"
 width="541.000000pt" height="168.000000pt" viewBox="0 0 541.000000 168.000000"
 preserveAspectRatio="xMidYMid meet">

<g transform="translate(0.000000,168.000000) scale(0.100000,-0.100000)"
fill="#000000" stroke="none">
<path d="M0 1460 l0 -220 20 20 c33 33 64 40 176 40 l104 0 0 -40 0 -40 -88 0
c-106 0 -135 -14 -130 -63 l3 -32 81 -6 c88 -7 126 -24 150 -70 31 -60 6 -152
-51 -183 -18 -10 -18 -10 -3 3 10 7 18 18 18 23 0 6 -8 4 -17 -3 -9 -8 -14 -9
-11 -4 4 6 -3 17 -15 24 -18 11 -20 11 -9 0 19 -20 14 -31 -7 -17 -15 9 -23 9
-37 -3 -11 -9 -15 -9 -10 -1 5 9 -14 12 -83 12 l-91 0 0 -30 0 -29 83 -4 82
-3 -82 -2 -83 -2 0 -415 0 -415 2705 0 2705 0 0 840 0 840 -697 -1 -698 -1
121 -23 c337 -64 656 -184 821 -310 37 -28 67 -56 66 -61 -5 -28 -32 -23 -103
17 -557 316 -1477 409 -2535 258 -307 -44 -826 -159 -1029 -228 -114 -39 -134
-39 -36 0 312 123 769 244 1210 319 l165 28 -1347 1 -1348 1 0 -220z m3535
-350 c53 -118 104 -230 111 -247 l14 -33 -53 0 c-50 0 -53 2 -71 35 -19 35
-20 35 -90 36 -39 0 -82 2 -94 3 -18 2 -30 -7 -48 -36 -23 -36 -27 -38 -73
-38 l-50 0 45 98 c104 224 198 411 204 404 4 -4 51 -104 105 -222z m1127 -7
c36 -40 69 -73 72 -73 3 0 6 63 6 140 l0 140 45 0 45 0 0 -245 c0 -166 -3
-245 -11 -245 -5 0 -7 5 -4 10 18 29 -17 61 -38 35 -5 -6 -56 41 -127 114
l-120 125 0 -137 0 -137 -45 0 -45 0 0 253 0 252 78 -80 c42 -44 107 -113 144
-152z m-3575 179 c46 -24 89 -71 110 -119 17 -42 17 -145 -1 -187 -35 -84
-141 -156 -230 -156 -122 0 -230 94 -251 217 -17 103 59 225 162 257 63 21
156 15 210 -12z m556 3 c38 -18 39 -23 3 -69 -13 -17 -20 -17 -60 -7 -66 16
-104 14 -146 -10 -54 -30 -74 -72 -68 -141 5 -62 28 -100 75 -123 41 -20 108
-19 144 2 15 9 30 15 32 12 2 -2 15 -19 30 -38 l28 -33 -47 -25 c-128 -68
-279 -23 -338 101 -85 181 46 366 250 353 33 -3 77 -12 97 -22z m189 -90 c-3
-58 -1 -105 4 -105 5 0 44 48 87 105 l78 105 60 0 c32 0 59 -4 59 -8 0 -5 -38
-55 -85 -111 -47 -57 -85 -107 -85 -111 0 -4 41 -59 90 -121 l90 -114 -57 -3
c-51 -3 -61 0 -78 21 -11 13 -49 59 -85 103 -73 89 -67 92 -72 -46 l-3 -75
-47 -3 -48 -3 0 235 0 235 43 3 c23 2 45 2 48 1 3 -1 4 -50 1 -108z m2179 84
c49 -25 107 -94 120 -143 28 -103 -15 -213 -105 -273 -48 -33 -48 -33 -177
-33 l-129 0 0 238 0 237 127 -3 c100 -3 135 -8 164 -23z m316 -212 l2 -238
-47 3 -47 3 -3 225 c-1 123 0 231 3 238 3 9 19 12 47 10 l43 -3 2 -238z m1003
198 l0 -45 -98 0 c-119 0 -156 -16 -190 -81 -18 -34 -22 -54 -18 -88 12 -94
63 -131 179 -131 l77 0 0 50 0 50 -60 0 -60 0 0 50 c0 58 -9 55 138 43 l82 -6
0 -163 c0 -103 -4 -164 -10 -164 -5 0 -10 14 -10 31 0 16 -4 28 -9 25 -5 -4
-11 0 -14 6 -3 10 -10 8 -26 -6 -18 -16 -21 -30 -21 -96 l0 -77 -97 -6 c-54
-4 -240 -6 -413 -5 l-315 1 305 8 c168 4 350 9 405 11 l100 3 3 60 c4 70 -5
116 -18 95 -11 -18 -141 -8 -196 15 -146 61 -192 267 -84 383 54 57 83 66 220
73 69 3 126 6 128 7 1 1 2 -18 2 -43z m-4628 30 c3 -3 2 -22 -1 -42 l-6 -36
-55 -1 -55 -1 -3 -192 -2 -193 -45 0 -45 0 -2 113 c-2 61 -3 144 -3 182 -1
101 2 95 -65 95 l-60 0 0 40 0 40 168 0 c93 0 171 -2 174 -5z m1998 -35 l0
-40 -60 0 -60 0 0 -195 0 -195 -50 0 -50 0 0 195 0 195 -70 0 -70 0 0 40 0 40
180 0 180 0 0 -40z m361 26 c67 -28 99 -81 99 -162 0 -52 -3 -59 -38 -93 -20
-20 -45 -40 -54 -46 -16 -9 -13 -17 27 -75 24 -36 45 -68 45 -72 0 -5 -25 -8
-55 -8 l-54 0 -48 75 c-48 75 -48 76 -88 73 l-40 -3 -3 -72 -3 -73 -44 0 -45
0 0 235 0 235 134 0 c92 0 144 -4 167 -14z m-923 -602 c2 -1 1 -12 -3 -23 -5
-18 -12 -20 -44 -15 -28 4 -40 2 -51 -11 -13 -15 -11 -20 11 -39 15 -11 40
-29 57 -38 41 -22 51 -61 25 -96 -27 -36 -60 -46 -117 -38 -46 7 -47 9 -41 34
9 36 10 37 37 18 28 -20 52 -20 72 -1 20 20 12 37 -27 59 -49 29 -77 57 -77
81 0 51 61 88 125 77 17 -3 32 -6 33 -8z m125 -43 l34 -53 31 51 c25 39 37 51
57 51 14 0 25 -2 25 -4 0 -1 -20 -34 -45 -72 -40 -61 -45 -74 -45 -126 0 -54
-1 -58 -24 -58 -22 0 -24 4 -28 64 -3 56 -9 72 -46 124 -23 33 -42 63 -42 65
0 6 31 15 42 13 4 0 23 -25 41 -55z m1001 -64 c21 -37 43 -66 48 -65 6 2 34
45 63 96 29 51 55 89 58 85 3 -4 10 -57 17 -118 6 -60 14 -118 16 -127 4 -14
-1 -18 -20 -18 -22 0 -26 5 -32 48 -13 90 -17 92 -58 19 -20 -36 -40 -68 -45
-71 -4 -3 -25 26 -47 65 -42 78 -41 79 -58 -23 -6 -32 -11 -38 -32 -38 -19 0
-24 4 -20 18 3 9 10 55 16 102 5 47 13 100 16 119 l5 34 18 -29 c10 -16 34
-60 55 -97z m419 104 c4 -4 5 -15 1 -24 -5 -13 -14 -16 -44 -11 -31 5 -40 3
-48 -13 -14 -25 -7 -33 50 -66 55 -32 69 -64 44 -103 -24 -36 -57 -48 -110
-40 -36 6 -46 11 -46 26 0 24 18 36 33 21 15 -15 50 -14 65 1 21 21 13 47 -20
64 -71 36 -91 71 -67 115 21 40 111 58 142 30z m-1079 0 c4 -5 3 -16 0 -25 -5
-12 -15 -15 -43 -10 -27 4 -41 2 -50 -10 -18 -21 -1 -42 51 -63 66 -26 77 -77
27 -124 -33 -31 -75 -38 -123 -19 -23 8 -25 12 -15 34 11 23 13 24 35 10 34
-23 68 -15 72 16 2 20 -5 29 -30 44 -83 47 -101 96 -52 135 28 22 117 30 128
12z m254 -13 c2 -12 -5 -17 -30 -20 l-33 -3 -3 -107 c-3 -107 -3 -108 -27
-108 -24 0 -24 1 -27 108 l-3 107 -37 3 c-30 3 -38 7 -38 23 0 18 6 20 97 17
82 -3 98 -6 101 -20z m230 0 c-3 -21 -8 -23 -55 -20 -53 3 -53 3 -53 -27 0
-28 3 -30 43 -33 34 -2 42 -7 42 -23 0 -16 -8 -21 -42 -23 -34 -3 -42 -7 -47
-28 -10 -37 0 -44 60 -44 47 0 54 -2 54 -20 0 -18 -7 -20 -80 -20 l-80 0 0
130 0 130 81 0 c78 0 80 -1 77 -22z m2159 -90 c-50 -78 -147 -165 -275 -248
-61 -40 -112 -76 -112 -81 0 -4 -10 -11 -22 -15 l-21 -6 24 -14 c24 -14 24
-14 -6 -8 -21 4 -26 3 -16 -4 19 -13 3 -21 -136 -66 -132 -42 -306 -78 -498
-103 -201 -25 -817 -25 -1060 0 -415 45 -753 117 -1170 251 -297 95 -680 234
-671 243 2 2 26 -5 54 -16 199 -79 811 -245 1142 -310 654 -129 1424 -143
1950 -35 167 34 344 94 460 155 137 74 211 134 335 272 28 30 51 52 53 47 2
-5 -12 -33 -31 -62z m-3987 -38 c8 -5 11 -10 5 -10 -5 0 -17 5 -25 10 -8 5
-10 10 -5 10 6 0 17 -5 25 -10z"/>
<path d="M3395 1066 c-14 -31 -25 -61 -25 -66 0 -6 27 -10 60 -10 l59 0 -29
61 c-15 33 -31 63 -34 66 -3 4 -17 -19 -31 -51z"/>
<path d="M3223 880 c-3 -11 -10 -20 -15 -20 -5 0 -6 -4 -3 -10 3 -5 21 -10 38
-10 24 0 35 6 43 23 7 17 7 24 0 25 -6 0 -22 3 -35 6 -17 4 -24 0 -28 -14z"/>
<path d="M3560 856 c0 -2 7 -6 15 -10 8 -3 15 -1 15 4 0 6 -7 10 -15 10 -8 0
-15 -2 -15 -4z"/>
<path d="M3600 850 c0 -5 6 -10 14 -10 8 0 18 5 21 10 3 6 -3 10 -14 10 -12 0
-21 -4 -21 -10z"/>
<path d="M4480 869 c0 -4 -7 -6 -15 -3 -9 4 -15 0 -15 -10 0 -12 9 -16 34 -16
26 0 34 4 32 17 -3 17 -36 29 -36 12z"/>
<path d="M891 1203 c-65 -32 -95 -115 -66 -188 58 -153 263 -127 290 37 20
114 -115 204 -224 151z"/>
<path d="M822 889 c12 -36 155 -78 172 -50 5 7 1 9 -9 5 -22 -9 -107 5 -100
17 3 5 -1 6 -9 3 -8 -3 -24 4 -36 16 -13 13 -20 16 -18 9z"/>
<path d="M1810 875 c0 -11 -5 -12 -25 -5 -14 5 -25 8 -26 7 -10 -30 -5 -37 27
-37 30 0 34 3 34 25 0 14 -2 25 -5 25 -3 0 -5 -7 -5 -15z"/>
<path d="M3814 1207 c-2 -7 -3 -74 -2 -148 l3 -134 50 -3 c77 -5 121 12 152
59 52 79 28 180 -52 219 -48 23 -143 28 -151 7z"/>
<path d="M4000 889 c-13 -7 -13 -9 0 -9 13 0 13 -1 0 -10 -8 -5 -10 -10 -4
-10 16 0 37 27 27 33 -5 3 -15 2 -23 -4z"/>
<path d="M3734 869 c-12 -21 20 -29 117 -29 62 0 100 4 110 13 8 6 12 11 10
10 -2 -1 -13 3 -25 9 -18 10 -19 9 -9 -3 10 -13 3 -14 -54 -8 -37 4 -81 6 -99
5 -18 -1 -30 2 -28 6 3 5 1 8 -5 8 -5 0 -13 -5 -17 -11z"/>
<path d="M3888 873 c6 -2 18 -2 25 0 6 3 1 5 -13 5 -14 0 -19 -2 -12 -5z"/>
<path d="M4250 865 c0 -21 5 -25 30 -25 26 0 30 4 30 28 0 19 -3 23 -9 13 -7
-10 -13 -11 -30 -2 -19 11 -21 9 -21 -14z"/>
<path d="M5270 856 c0 -2 7 -9 15 -16 9 -7 15 -8 15 -2 0 5 -7 12 -15 16 -8 3
-15 4 -15 2z"/>
<path d="M5113 843 c9 -2 23 -2 30 0 6 3 -1 5 -18 5 -16 0 -22 -2 -12 -5z"/>
<path d="M5198 843 c12 -2 30 -2 40 0 9 3 -1 5 -23 4 -22 0 -30 -2 -17 -4z"/>
<path d="M500 873 c0 -30 3 -33 29 -33 35 0 46 13 26 30 -12 10 -15 10 -15 0
0 -7 -9 -2 -20 11 l-19 24 -1 -32z"/>
<path d="M2535 881 c-11 -5 -23 -7 -27 -4 -5 2 -8 -5 -8 -16 0 -17 6 -21 30
-21 25 0 30 4 30 25 0 14 -1 25 -2 24 -2 0 -12 -4 -23 -8z"/>
<path d="M2855 1208 c-3 -8 -5 -44 -3 -79 l3 -64 83 0 c76 0 86 2 103 24 24
29 24 72 1 101 -16 20 -31 24 -100 28 -66 4 -83 2 -87 -10z"/>
<path d="M2820 869 c0 -6 -8 -9 -20 -6 -12 3 -20 0 -20 -7 0 -6 14 -13 30 -14
30 -2 43 19 20 33 -5 3 -10 1 -10 -6z"/>
<path d="M3034 853 c8 -9 46 -11 51 -3 3 5 -8 8 -25 8 -17 -1 -29 -3 -26 -5z"/>
<path d="M0 995 l0 -75 99 0 c107 0 131 10 131 54 0 36 -19 46 -91 46 -54 0
-73 5 -103 25 l-36 24 0 -74z"/>
</g>
</svg>
