<?xml version="1.0" standalone="no"?>
<!DOCTYPE svg PUBLIC "-//W3C//DTD SVG 20010904//EN"
 "http://www.w3.org/TR/2001/REC-SVG-20010904/DTD/svg10.dtd">
<svg version="1.0" xmlns="http://www.w3.org/2000/svg"
 width="438.000000pt" height="350.000000pt" viewBox="0 0 438.000000 350.000000"
 preserveAspectRatio="xMidYMid meet">

<g transform="translate(0.000000,350.000000) scale(0.100000,-0.100000)"
fill="#000000" stroke="none">
<path d="M2752 2693 c-1 -12 -8 -37 -16 -55 -19 -44 -76 -230 -76 -245 0 -7
-4 -13 -10 -13 -5 0 -10 -7 -10 -17 0 -17 -27 -115 -41 -148 -5 -11 -18 -49
-29 -85 -79 -248 -72 -228 -105 -307 -16 -38 -16 -43 -1 -65 9 -13 22 -23 29
-23 6 0 11 -8 9 -16 -1 -9 5 -22 14 -30 13 -11 17 -10 25 2 5 9 9 10 9 2 0 -6
-5 -15 -10 -18 -6 -4 15 -37 47 -75 31 -38 60 -67 65 -64 4 3 5 -1 2 -9 -9
-24 12 -28 32 -6 16 17 16 22 4 31 -13 8 -12 9 1 5 10 -3 27 6 43 22 l26 27
-3 555 c-1 305 -3 544 -5 532z m-281 -906 c-10 -9 -11 -8 -5 6 3 10 9 15 12
12 3 -3 0 -11 -7 -18z m80 -64 c13 -16 12 -17 -3 -4 -10 7 -18 15 -18 17 0 8
8 3 21 -13z m33 -66 c4 4 4 0 0 -10 -7 -18 11 -24 19 -7 3 6 4 5 3 -2 -4 -23
-23 -19 -41 9 -13 20 -14 24 -3 16 8 -7 18 -10 22 -6z m46 -45 c0 -5 -7 -9
-15 -9 -8 0 -12 4 -9 9 3 4 9 8 15 8 5 0 9 -4 9 -8z m24 -40 c3 -5 -1 -9 -9
-9 -8 0 -12 4 -9 9 3 4 7 8 9 8 2 0 6 -4 9 -8z"/>
<path d="M2335 2428 c-20 -61 -54 -151 -115 -308 -39 -102 -78 -205 -87 -230
-8 -25 -24 -59 -34 -76 -10 -17 -16 -33 -13 -36 2 -3 -7 -27 -21 -53 -14 -26
-25 -51 -25 -54 0 -3 20 17 45 44 45 51 60 79 28 54 -16 -13 -17 -12 -4 3 7
10 17 16 21 13 11 -7 140 152 137 167 -2 7 -2 10 0 5 3 -4 10 -4 16 0 20 12
47 14 47 2 0 -5 -4 -7 -10 -4 -17 11 -11 -11 8 -28 18 -16 18 -7 18 248 -1
146 -2 265 -4 265 -1 0 -5 -6 -7 -12z m-140 -538 c4 -6 1 -9 -6 -8 -6 2 -14
-3 -17 -11 -3 -9 0 -11 8 -6 9 6 11 4 5 -4 -5 -9 -10 -10 -18 -2 -7 7 -6 15 3
26 15 18 17 18 25 5z"/>
<path d="M3465 2284 c-71 -31 -143 -60 -158 -66 l-28 -10 45 -32 c25 -17 46
-33 46 -36 0 -6 -54 -65 -385 -420 -105 -113 -213 -230 -241 -260 l-49 -55 65
55 c36 30 67 57 70 60 3 3 46 39 95 80 50 41 92 77 95 80 3 3 100 84 215 179
116 96 218 181 227 189 15 13 21 11 54 -17 21 -17 39 -29 40 -28 3 2 54 321
54 333 0 8 -18 2 -145 -52z"/>
<path d="M1916 2103 c-3 -10 -23 -37 -43 -60 -47 -52 -145 -167 -189 -222 -10
-13 -30 -35 -43 -48 l-24 -25 136 -136 136 -135 20 24 c19 23 20 39 21 322 0
163 -2 297 -4 297 -3 0 -7 -8 -10 -17z m-252 -369 c3 -8 2 -12 -4 -9 -6 3 -10
10 -10 16 0 14 7 11 14 -7z m81 -84 c10 -11 16 -20 13 -20 -3 0 -13 9 -23 20
-10 11 -16 20 -13 20 3 0 13 -9 23 -20z m80 -80 c10 -11 16 -20 13 -20 -3 0
-13 9 -23 20 -10 11 -16 20 -13 20 3 0 13 -9 23 -20z"/>
<path d="M2196 1724 c-199 -242 -297 -366 -284 -358 7 4 24 15 38 25 41 27
295 177 323 190 26 12 41 4 342 -172 23 -13 35 -17 29 -9 -6 8 -76 96 -155
195 -79 100 -156 196 -170 215 l-25 34 -98 -120z"/>
<path d="M1404 1468 c-191 -217 -336 -381 -344 -388 -3 -3 -32 -36 -65 -75
-33 -38 -81 -92 -107 -120 -88 -94 -93 -110 -13 -41 44 38 195 166 335 286
140 119 279 237 308 262 l54 46 150 -39 c83 -22 152 -38 153 -37 1 2 -66 69
-150 150 l-152 148 -169 -192z"/>
</g>
</svg>
